<mxfile host="Electron" agent="Mozilla/5.0 (Windows NT 10.0; Win64; x64) AppleWebKit/537.36 (KHTML, like Gecko) draw.io/26.0.4 Chrome/128.0.6613.186 Electron/32.2.5 Safari/537.36" version="26.0.4">
  <diagram name="Seite-1" id="bXjDITTMxru2W0Pr4Kpk">
    <mxGraphModel dx="875" dy="532" grid="1" gridSize="10" guides="1" tooltips="1" connect="1" arrows="1" fold="1" page="1" pageScale="1" pageWidth="827" pageHeight="1169" math="0" shadow="0">
      <root>
        <mxCell id="0" />
        <mxCell id="1" parent="0" />
        <mxCell id="h8um56HeTcSCQODRl9P6-27" value="" style="rounded=0;whiteSpace=wrap;html=1;" parent="1" vertex="1">
          <mxGeometry x="420" y="640" width="360" height="240" as="geometry" />
        </mxCell>
        <mxCell id="h8um56HeTcSCQODRl9P6-1" value="" style="rounded=0;whiteSpace=wrap;html=1;" parent="1" vertex="1">
          <mxGeometry x="420" y="360" width="360" height="270" as="geometry" />
        </mxCell>
        <mxCell id="toPsAk9bRAn8ij5QF8aS-2" value="Employee" style="shape=umlLifeline;perimeter=lifelinePerimeter;whiteSpace=wrap;html=1;container=1;dropTarget=0;collapsible=0;recursiveResize=0;outlineConnect=0;portConstraint=eastwest;newEdgeStyle={&quot;curved&quot;:0,&quot;rounded&quot;:0};" parent="1" vertex="1">
          <mxGeometry x="480" y="260" width="100" height="670" as="geometry" />
        </mxCell>
        <mxCell id="toPsAk9bRAn8ij5QF8aS-3" value="" style="rounded=0;whiteSpace=wrap;html=1;" parent="1" vertex="1">
          <mxGeometry x="525" y="320" width="10" height="600" as="geometry" />
        </mxCell>
        <mxCell id="uQ50tl0aMY-tKoh8gD8h-1" value="Car" style="shape=umlLifeline;perimeter=lifelinePerimeter;whiteSpace=wrap;html=1;container=1;dropTarget=0;collapsible=0;recursiveResize=0;outlineConnect=0;portConstraint=eastwest;newEdgeStyle={&quot;curved&quot;:0,&quot;rounded&quot;:0};" parent="1" vertex="1">
          <mxGeometry x="760" y="260" width="100" height="160" as="geometry" />
        </mxCell>
        <mxCell id="uQ50tl0aMY-tKoh8gD8h-2" value="" style="rounded=0;whiteSpace=wrap;html=1;" parent="1" vertex="1">
          <mxGeometry x="805" y="320" width="10" height="80" as="geometry" />
        </mxCell>
        <mxCell id="uQ50tl0aMY-tKoh8gD8h-3" value="" style="edgeStyle=elbowEdgeStyle;fontSize=12;html=1;endArrow=blockThin;endFill=1;rounded=0;exitX=0.5;exitY=0;exitDx=0;exitDy=0;entryX=0.25;entryY=0;entryDx=0;entryDy=0;" parent="1" source="toPsAk9bRAn8ij5QF8aS-3" target="uQ50tl0aMY-tKoh8gD8h-2" edge="1">
          <mxGeometry width="160" relative="1" as="geometry">
            <mxPoint x="560" y="320" as="sourcePoint" />
            <mxPoint x="720" y="320" as="targetPoint" />
          </mxGeometry>
        </mxCell>
        <mxCell id="uQ50tl0aMY-tKoh8gD8h-4" value="checkCar()" style="edgeLabel;html=1;align=center;verticalAlign=middle;resizable=0;points=[];" parent="uQ50tl0aMY-tKoh8gD8h-3" vertex="1" connectable="0">
          <mxGeometry x="0.137" relative="1" as="geometry">
            <mxPoint x="-19" y="-10" as="offset" />
          </mxGeometry>
        </mxCell>
        <mxCell id="uQ50tl0aMY-tKoh8gD8h-5" value="" style="edgeStyle=elbowEdgeStyle;fontSize=12;html=1;endArrow=none;endFill=0;rounded=0;dashed=1;startArrow=open;startFill=0;entryX=-0.028;entryY=0.374;entryDx=0;entryDy=0;entryPerimeter=0;" parent="1" target="uQ50tl0aMY-tKoh8gD8h-2" edge="1">
          <mxGeometry width="160" relative="1" as="geometry">
            <mxPoint x="535" y="350" as="sourcePoint" />
            <mxPoint x="800" y="350" as="targetPoint" />
            <Array as="points">
              <mxPoint x="800" y="340" />
              <mxPoint x="535.23" y="350.03" />
            </Array>
          </mxGeometry>
        </mxCell>
        <mxCell id="uQ50tl0aMY-tKoh8gD8h-6" value="car condition" style="edgeLabel;html=1;align=center;verticalAlign=middle;resizable=0;points=[];" parent="uQ50tl0aMY-tKoh8gD8h-5" vertex="1" connectable="0">
          <mxGeometry x="0.137" relative="1" as="geometry">
            <mxPoint x="-19" y="-10" as="offset" />
          </mxGeometry>
        </mxCell>
        <mxCell id="h8um56HeTcSCQODRl9P6-2" value="if (fuel &amp;lt;= 20%)&amp;nbsp;" style="text;html=1;align=center;verticalAlign=middle;whiteSpace=wrap;rounded=0;" parent="1" vertex="1">
          <mxGeometry x="420" y="360" width="100" height="30" as="geometry" />
        </mxCell>
        <mxCell id="h8um56HeTcSCQODRl9P6-3" value="System" style="shape=umlLifeline;perimeter=lifelinePerimeter;whiteSpace=wrap;html=1;container=1;dropTarget=0;collapsible=0;recursiveResize=0;outlineConnect=0;portConstraint=eastwest;newEdgeStyle={&quot;curved&quot;:0,&quot;rounded&quot;:0};" parent="1" vertex="1">
          <mxGeometry x="620" y="370" width="70" height="560" as="geometry" />
        </mxCell>
        <mxCell id="h8um56HeTcSCQODRl9P6-4" value="" style="rounded=0;whiteSpace=wrap;html=1;" parent="1" vertex="1">
          <mxGeometry x="650" y="430" width="10" height="490" as="geometry" />
        </mxCell>
        <mxCell id="h8um56HeTcSCQODRl9P6-5" value="" style="edgeStyle=elbowEdgeStyle;fontSize=12;html=1;endArrow=blockThin;endFill=1;rounded=0;exitX=1.025;exitY=0.324;exitDx=0;exitDy=0;exitPerimeter=0;" parent="1" edge="1">
          <mxGeometry width="160" relative="1" as="geometry">
            <mxPoint x="535.25" y="569.4" as="sourcePoint" />
            <mxPoint x="650" y="569.4" as="targetPoint" />
            <Array as="points" />
          </mxGeometry>
        </mxCell>
        <mxCell id="h8um56HeTcSCQODRl9P6-6" value="makeEntry(fuel)" style="edgeLabel;html=1;align=center;verticalAlign=middle;resizable=0;points=[];" parent="h8um56HeTcSCQODRl9P6-5" vertex="1" connectable="0">
          <mxGeometry x="0.1268" relative="1" as="geometry">
            <mxPoint x="-9" y="-5" as="offset" />
          </mxGeometry>
        </mxCell>
        <mxCell id="h8um56HeTcSCQODRl9P6-8" value="" style="rounded=0;whiteSpace=wrap;html=1;" parent="1" vertex="1">
          <mxGeometry x="660" y="470" width="10" height="20" as="geometry" />
        </mxCell>
        <mxCell id="h8um56HeTcSCQODRl9P6-9" value="" style="edgeStyle=elbowEdgeStyle;fontSize=12;html=1;endArrow=blockThin;endFill=1;rounded=0;exitX=1.049;exitY=0.045;exitDx=0;exitDy=0;exitPerimeter=0;entryX=1;entryY=0;entryDx=0;entryDy=0;" parent="1" source="h8um56HeTcSCQODRl9P6-4" target="h8um56HeTcSCQODRl9P6-8" edge="1">
          <mxGeometry width="160" relative="1" as="geometry">
            <mxPoint x="622" y="460" as="sourcePoint" />
            <mxPoint x="782" y="460" as="targetPoint" />
            <Array as="points">
              <mxPoint x="680" y="450" />
            </Array>
          </mxGeometry>
        </mxCell>
        <mxCell id="h8um56HeTcSCQODRl9P6-10" value="calculateFine(fuel)" style="edgeLabel;html=1;align=center;verticalAlign=middle;resizable=0;points=[];" parent="h8um56HeTcSCQODRl9P6-9" vertex="1" connectable="0">
          <mxGeometry x="0.2555" relative="1" as="geometry">
            <mxPoint x="30" y="-8" as="offset" />
          </mxGeometry>
        </mxCell>
        <mxCell id="h8um56HeTcSCQODRl9P6-17" value="" style="endArrow=none;html=1;rounded=0;exitX=0;exitY=0.486;exitDx=0;exitDy=0;exitPerimeter=0;" parent="1" edge="1">
          <mxGeometry width="50" height="50" relative="1" as="geometry">
            <mxPoint x="420" y="550.66" as="sourcePoint" />
            <mxPoint x="779.43" y="550" as="targetPoint" />
          </mxGeometry>
        </mxCell>
        <mxCell id="h8um56HeTcSCQODRl9P6-18" value="if (fuel &amp;gt; 80%)&amp;nbsp;" style="text;html=1;align=center;verticalAlign=middle;whiteSpace=wrap;rounded=0;" parent="1" vertex="1">
          <mxGeometry x="420" y="550" width="100" height="30" as="geometry" />
        </mxCell>
        <mxCell id="h8um56HeTcSCQODRl9P6-19" value="" style="edgeStyle=elbowEdgeStyle;fontSize=12;html=1;endArrow=blockThin;endFill=1;rounded=0;exitX=1.041;exitY=0.526;exitDx=0;exitDy=0;exitPerimeter=0;entryX=-0.04;entryY=0.733;entryDx=0;entryDy=0;entryPerimeter=0;" parent="1" edge="1">
          <mxGeometry width="160" relative="1" as="geometry">
            <mxPoint x="535.0000000000001" y="440.36000000000007" as="sourcePoint" />
            <mxPoint x="649.1899999999999" y="439.99999999999994" as="targetPoint" />
            <Array as="points">
              <mxPoint x="649.59" y="329.72" />
            </Array>
          </mxGeometry>
        </mxCell>
        <mxCell id="h8um56HeTcSCQODRl9P6-20" value="makeEntry(fuel)" style="edgeLabel;html=1;align=center;verticalAlign=middle;resizable=0;points=[];" parent="h8um56HeTcSCQODRl9P6-19" vertex="1" connectable="0">
          <mxGeometry x="0.1268" relative="1" as="geometry">
            <mxPoint x="-9" y="-5" as="offset" />
          </mxGeometry>
        </mxCell>
        <mxCell id="h8um56HeTcSCQODRl9P6-28" value="if (car condition&lt;br&gt;!= good)&amp;nbsp;" style="text;html=1;align=center;verticalAlign=middle;whiteSpace=wrap;rounded=0;" parent="1" vertex="1">
          <mxGeometry x="420" y="640" width="100" height="30" as="geometry" />
        </mxCell>
        <mxCell id="h8um56HeTcSCQODRl9P6-29" value="" style="edgeStyle=elbowEdgeStyle;fontSize=12;html=1;endArrow=blockThin;endFill=1;rounded=0;exitX=1.041;exitY=0.526;exitDx=0;exitDy=0;exitPerimeter=0;entryX=-0.04;entryY=0.733;entryDx=0;entryDy=0;entryPerimeter=0;" parent="1" edge="1">
          <mxGeometry width="160" relative="1" as="geometry">
            <mxPoint x="535.0000000000001" y="655.07" as="sourcePoint" />
            <mxPoint x="649.1899999999999" y="654.7099999999999" as="targetPoint" />
            <Array as="points">
              <mxPoint x="649.59" y="544.4300000000001" />
            </Array>
          </mxGeometry>
        </mxCell>
        <mxCell id="h8um56HeTcSCQODRl9P6-30" value="makeEntry(condition)" style="edgeLabel;html=1;align=center;verticalAlign=middle;resizable=0;points=[];" parent="h8um56HeTcSCQODRl9P6-29" vertex="1" connectable="0">
          <mxGeometry x="0.1268" relative="1" as="geometry">
            <mxPoint x="-9" y="-5" as="offset" />
          </mxGeometry>
        </mxCell>
        <mxCell id="h8um56HeTcSCQODRl9P6-31" value="" style="rounded=0;whiteSpace=wrap;html=1;" parent="1" vertex="1">
          <mxGeometry x="660" y="687" width="10" height="20" as="geometry" />
        </mxCell>
        <mxCell id="h8um56HeTcSCQODRl9P6-32" value="" style="edgeStyle=elbowEdgeStyle;fontSize=12;html=1;endArrow=blockThin;endFill=1;rounded=0;exitX=1.049;exitY=0.045;exitDx=0;exitDy=0;exitPerimeter=0;entryX=1;entryY=0;entryDx=0;entryDy=0;" parent="1" target="h8um56HeTcSCQODRl9P6-31" edge="1">
          <mxGeometry width="160" relative="1" as="geometry">
            <mxPoint x="660" y="660" as="sourcePoint" />
            <mxPoint x="782" y="677" as="targetPoint" />
            <Array as="points">
              <mxPoint x="680" y="667" />
            </Array>
          </mxGeometry>
        </mxCell>
        <mxCell id="h8um56HeTcSCQODRl9P6-33" value="calculateFine(condition)" style="edgeLabel;html=1;align=center;verticalAlign=middle;resizable=0;points=[];" parent="h8um56HeTcSCQODRl9P6-32" vertex="1" connectable="0">
          <mxGeometry x="0.2555" relative="1" as="geometry">
            <mxPoint x="40" y="-6" as="offset" />
          </mxGeometry>
        </mxCell>
        <mxCell id="h8um56HeTcSCQODRl9P6-36" value="" style="endArrow=none;html=1;rounded=0;exitX=0.009;exitY=0.64;exitDx=0;exitDy=0;exitPerimeter=0;entryX=0.999;entryY=0.702;entryDx=0;entryDy=0;entryPerimeter=0;" parent="1" target="h8um56HeTcSCQODRl9P6-27" edge="1">
          <mxGeometry width="50" height="50" relative="1" as="geometry">
            <mxPoint x="420.0000000000001" y="810.5200000000001" as="sourcePoint" />
            <mxPoint x="776.76" y="810.0000000000001" as="targetPoint" />
          </mxGeometry>
        </mxCell>
        <mxCell id="h8um56HeTcSCQODRl9P6-37" value="" style="edgeStyle=elbowEdgeStyle;fontSize=12;html=1;endArrow=blockThin;endFill=1;rounded=0;exitX=1.041;exitY=0.526;exitDx=0;exitDy=0;exitPerimeter=0;entryX=-0.04;entryY=0.733;entryDx=0;entryDy=0;entryPerimeter=0;" parent="1" edge="1">
          <mxGeometry width="160" relative="1" as="geometry">
            <mxPoint x="535.0000000000001" y="825.1600000000001" as="sourcePoint" />
            <mxPoint x="649.1899999999999" y="824.8" as="targetPoint" />
            <Array as="points">
              <mxPoint x="649.59" y="714.5200000000001" />
            </Array>
          </mxGeometry>
        </mxCell>
        <mxCell id="h8um56HeTcSCQODRl9P6-38" value="makeEntry(condition)" style="edgeLabel;html=1;align=center;verticalAlign=middle;resizable=0;points=[];" parent="h8um56HeTcSCQODRl9P6-37" vertex="1" connectable="0">
          <mxGeometry x="0.1268" relative="1" as="geometry">
            <mxPoint x="-9" y="-5" as="offset" />
          </mxGeometry>
        </mxCell>
        <mxCell id="h8um56HeTcSCQODRl9P6-39" value="if (car condition&lt;br&gt;= good)&amp;nbsp;" style="text;html=1;align=center;verticalAlign=middle;whiteSpace=wrap;rounded=0;" parent="1" vertex="1">
          <mxGeometry x="420" y="810" width="100" height="30" as="geometry" />
        </mxCell>
        <mxCell id="h8um56HeTcSCQODRl9P6-42" value="" style="rounded=0;whiteSpace=wrap;html=1;" parent="1" vertex="1">
          <mxGeometry x="660" y="518" width="10" height="20" as="geometry" />
        </mxCell>
        <mxCell id="h8um56HeTcSCQODRl9P6-43" value="" style="edgeStyle=elbowEdgeStyle;fontSize=12;html=1;endArrow=blockThin;endFill=1;rounded=0;exitX=1.049;exitY=0.045;exitDx=0;exitDy=0;exitPerimeter=0;entryX=1;entryY=0;entryDx=0;entryDy=0;" parent="1" target="h8um56HeTcSCQODRl9P6-42" edge="1">
          <mxGeometry width="160" relative="1" as="geometry">
            <mxPoint x="660" y="500" as="sourcePoint" />
            <mxPoint x="782" y="508" as="targetPoint" />
            <Array as="points">
              <mxPoint x="680" y="498" />
            </Array>
          </mxGeometry>
        </mxCell>
        <mxCell id="h8um56HeTcSCQODRl9P6-44" value="save(fuel, fine)" style="edgeLabel;html=1;align=center;verticalAlign=middle;resizable=0;points=[];" parent="h8um56HeTcSCQODRl9P6-43" vertex="1" connectable="0">
          <mxGeometry x="0.2555" relative="1" as="geometry">
            <mxPoint x="30" y="-8" as="offset" />
          </mxGeometry>
        </mxCell>
        <mxCell id="h8um56HeTcSCQODRl9P6-45" value="" style="rounded=0;whiteSpace=wrap;html=1;" parent="1" vertex="1">
          <mxGeometry x="660" y="588" width="10" height="20" as="geometry" />
        </mxCell>
        <mxCell id="h8um56HeTcSCQODRl9P6-46" value="" style="edgeStyle=elbowEdgeStyle;fontSize=12;html=1;endArrow=blockThin;endFill=1;rounded=0;exitX=1.049;exitY=0.045;exitDx=0;exitDy=0;exitPerimeter=0;entryX=1;entryY=0;entryDx=0;entryDy=0;" parent="1" target="h8um56HeTcSCQODRl9P6-45" edge="1">
          <mxGeometry width="160" relative="1" as="geometry">
            <mxPoint x="660" y="570" as="sourcePoint" />
            <mxPoint x="782" y="578" as="targetPoint" />
            <Array as="points">
              <mxPoint x="680" y="568" />
            </Array>
          </mxGeometry>
        </mxCell>
        <mxCell id="h8um56HeTcSCQODRl9P6-47" value="save(fuel)" style="edgeLabel;html=1;align=center;verticalAlign=middle;resizable=0;points=[];" parent="h8um56HeTcSCQODRl9P6-46" vertex="1" connectable="0">
          <mxGeometry x="0.2555" relative="1" as="geometry">
            <mxPoint x="30" y="-8" as="offset" />
          </mxGeometry>
        </mxCell>
        <mxCell id="h8um56HeTcSCQODRl9P6-48" value="" style="rounded=0;whiteSpace=wrap;html=1;" parent="1" vertex="1">
          <mxGeometry x="660" y="738" width="10" height="20" as="geometry" />
        </mxCell>
        <mxCell id="h8um56HeTcSCQODRl9P6-49" value="" style="edgeStyle=elbowEdgeStyle;fontSize=12;html=1;endArrow=blockThin;endFill=1;rounded=0;exitX=1.049;exitY=0.045;exitDx=0;exitDy=0;exitPerimeter=0;entryX=1;entryY=0;entryDx=0;entryDy=0;" parent="1" target="h8um56HeTcSCQODRl9P6-48" edge="1">
          <mxGeometry width="160" relative="1" as="geometry">
            <mxPoint x="660" y="720" as="sourcePoint" />
            <mxPoint x="782" y="728" as="targetPoint" />
            <Array as="points">
              <mxPoint x="680" y="718" />
            </Array>
          </mxGeometry>
        </mxCell>
        <mxCell id="h8um56HeTcSCQODRl9P6-50" value="save(condition, fine)" style="edgeLabel;html=1;align=center;verticalAlign=middle;resizable=0;points=[];" parent="h8um56HeTcSCQODRl9P6-49" vertex="1" connectable="0">
          <mxGeometry x="0.2555" relative="1" as="geometry">
            <mxPoint x="40" y="-8" as="offset" />
          </mxGeometry>
        </mxCell>
        <mxCell id="h8um56HeTcSCQODRl9P6-51" value="" style="rounded=0;whiteSpace=wrap;html=1;" parent="1" vertex="1">
          <mxGeometry x="660" y="848" width="10" height="20" as="geometry" />
        </mxCell>
        <mxCell id="h8um56HeTcSCQODRl9P6-52" value="" style="edgeStyle=elbowEdgeStyle;fontSize=12;html=1;endArrow=blockThin;endFill=1;rounded=0;exitX=1.049;exitY=0.045;exitDx=0;exitDy=0;exitPerimeter=0;entryX=1;entryY=0;entryDx=0;entryDy=0;" parent="1" target="h8um56HeTcSCQODRl9P6-51" edge="1">
          <mxGeometry width="160" relative="1" as="geometry">
            <mxPoint x="660" y="830" as="sourcePoint" />
            <mxPoint x="782" y="838" as="targetPoint" />
            <Array as="points">
              <mxPoint x="680" y="828" />
            </Array>
          </mxGeometry>
        </mxCell>
        <mxCell id="h8um56HeTcSCQODRl9P6-53" value="save(condition)" style="edgeLabel;html=1;align=center;verticalAlign=middle;resizable=0;points=[];" parent="h8um56HeTcSCQODRl9P6-52" vertex="1" connectable="0">
          <mxGeometry x="0.2555" relative="1" as="geometry">
            <mxPoint x="30" y="-8" as="offset" />
          </mxGeometry>
        </mxCell>
        <mxCell id="h8um56HeTcSCQODRl9P6-54" value="Return protocol" style="shape=umlLifeline;perimeter=lifelinePerimeter;whiteSpace=wrap;html=1;container=1;dropTarget=0;collapsible=0;recursiveResize=0;outlineConnect=0;portConstraint=eastwest;newEdgeStyle={&quot;curved&quot;:0,&quot;rounded&quot;:0};" parent="1" vertex="1">
          <mxGeometry x="760" y="890" width="100" height="50" as="geometry" />
        </mxCell>
        <mxCell id="h8um56HeTcSCQODRl9P6-55" value="" style="edgeStyle=elbowEdgeStyle;fontSize=12;html=1;endArrow=blockThin;endFill=1;rounded=0;elbow=horizontal;" parent="1" edge="1">
          <mxGeometry width="160" relative="1" as="geometry">
            <mxPoint x="660" y="920" as="sourcePoint" />
            <mxPoint x="760" y="920" as="targetPoint" />
          </mxGeometry>
        </mxCell>
        <mxCell id="h8um56HeTcSCQODRl9P6-56" value="generatePDF(data)" style="edgeLabel;html=1;align=center;verticalAlign=middle;resizable=0;points=[];" parent="h8um56HeTcSCQODRl9P6-55" vertex="1" connectable="0">
          <mxGeometry x="-0.1931" relative="1" as="geometry">
            <mxPoint x="10" y="-10" as="offset" />
          </mxGeometry>
        </mxCell>
        <mxCell id="MyIsjGIGQj02y8PGgpIJ-2" value="Sequence diagram: Car check" style="shape=umlFrame;whiteSpace=wrap;html=1;pointerEvents=0;width=180;height=30;" vertex="1" parent="1">
          <mxGeometry x="320" y="210" width="620" height="760" as="geometry" />
        </mxCell>
      </root>
    </mxGraphModel>
  </diagram>
</mxfile>
